{
    "asset" : {
        "generator" : "Khronos glTF Blender I/O v1.2.75",
        "version" : "2.0"
    },
    "extensionsUsed" : [
        "KHR_texture_transform"
    ],
    "extensionsRequired" : [
        "KHR_texture_transform"
    ],
    "scene" : 0,
    "scenes" : [
        {
            "name" : "Game",
            "nodes" : [
                0,
                3
            ]
        }
    ],
    "nodes" : [
        {
            "mesh" : 0,
            "name" : "Cube.002",
            "translation" : [
                -0.5972596406936646,
                -0.12053897976875305,
                0
            ]
        },
        {
            "mesh" : 1,
            "name" : "Cube.005"
        },
        {
            "mesh" : 2,
            "name" : "Gun_trigger",
            "translation" : [
                -0.1308179646730423,
                0.24100036919116974,
                0
            ]
        },
        {
            "children" : [
                1,
                2
            ],
            "mesh" : 3,
            "name" : "Gun"
        }
    ],
    "animations" : [
        {
            "channels" : [
                {
                    "sampler" : 0,
                    "target" : {
                        "node" : 1,
                        "path" : "translation"
                    }
                }
            ],
            "name" : "pistol slide",
            "samplers" : [
                {
                    "input" : 16,
                    "interpolation" : "LINEAR",
                    "output" : 17
                }
            ]
        },
        {
            "channels" : [
                {
                    "sampler" : 0,
                    "target" : {
                        "node" : 2,
                        "path" : "rotation"
                    }
                }
            ],
            "name" : "Gun_trigger",
            "samplers" : [
                {
                    "input" : 16,
                    "interpolation" : "LINEAR",
                    "output" : 18
                }
            ]
        }
    ],
    "materials" : [
        {
            "doubleSided" : true,
            "emissiveFactor" : [
                0,
                0,
                0
            ],
            "name" : "handgun",
            "pbrMetallicRoughness" : {
                "baseColorTexture" : {
                    "index" : 0,
                    "texCoord" : 0
                },
                "metallicFactor" : 0,
                "roughnessFactor" : 0.5
            }
        },
        {
            "doubleSided" : true,
            "emissiveFactor" : [
                0,
                0,
                0
            ],
            "name" : "Material.001",
            "pbrMetallicRoughness" : {
                "baseColorTexture" : {
                    "extensions" : {
                        "KHR_texture_transform" : {
                            "offset" : [
                                -0.19999998807907104,
                                0
                            ]
                        }
                    },
                    "index" : 1,
                    "texCoord" : 0
                },
                "metallicFactor" : 0,
                "roughnessFactor" : 0.5
            }
        }
    ],
    "meshes" : [
        {
            "name" : "Cube.003",
            "primitives" : [
                {
                    "attributes" : {
                        "POSITION" : 0,
                        "NORMAL" : 1,
                        "TEXCOORD_0" : 2
                    },
                    "indices" : 3,
                    "material" : 0
                }
            ]
        },
        {
            "name" : "Cube.000",
            "primitives" : [
                {
                    "attributes" : {
                        "POSITION" : 4,
                        "NORMAL" : 5,
                        "TEXCOORD_0" : 6
                    },
                    "indices" : 7,
                    "material" : 1
                }
            ]
        },
        {
            "name" : "Cube.002",
            "primitives" : [
                {
                    "attributes" : {
                        "POSITION" : 8,
                        "NORMAL" : 9,
                        "TEXCOORD_0" : 10
                    },
                    "indices" : 11,
                    "material" : 0
                }
            ]
        },
        {
            "name" : "Cube.001",
            "primitives" : [
                {
                    "attributes" : {
                        "POSITION" : 12,
                        "NORMAL" : 13,
                        "TEXCOORD_0" : 14
                    },
                    "indices" : 15,
                    "material" : 0
                }
            ]
        }
    ],
    "textures" : [
        {
            "source" : 0
        },
        {
            "source" : 1
        }
    ],
    "images" : [
        {
            "mimeType" : "image/jpeg",
            "name" : "handgun_C.jpg",
            "uri" : "handgun_C_jpg.jpg"
        },
        {
            "mimeType" : "image/jpeg",
            "name" : "handgun_C",
            "uri" : "handgun_C.jpg"
        }
    ],
    "accessors" : [
        {
            "bufferView" : 0,
            "componentType" : 5126,
            "count" : 74,
            "max" : [
                0.28768035769462585,
                0.5153701305389404,
                0.07410739362239838
            ],
            "min" : [
                -0.3257295489311218,
                -0.49047207832336426,
                -0.07410739362239838
            ],
            "type" : "VEC3"
        },
        {
            "bufferView" : 1,
            "componentType" : 5126,
            "count" : 74,
            "type" : "VEC3"
        },
        {
            "bufferView" : 2,
            "componentType" : 5126,
            "count" : 74,
            "type" : "VEC2"
        },
        {
            "bufferView" : 3,
            "componentType" : 5123,
            "count" : 168,
            "type" : "SCALAR"
        },
        {
            "bufferView" : 4,
            "componentType" : 5126,
            "count" : 640,
            "max" : [
                0.8573475480079651,
                0.6452512741088867,
                0.101531021296978
            ],
            "min" : [
                -0.7594957947731018,
                0.2715325951576233,
                -0.101531021296978
            ],
            "type" : "VEC3"
        },
        {
            "bufferView" : 5,
            "componentType" : 5126,
            "count" : 640,
            "type" : "VEC3"
        },
        {
            "bufferView" : 6,
            "componentType" : 5126,
            "count" : 640,
            "type" : "VEC2"
        },
        {
            "bufferView" : 7,
            "componentType" : 5123,
            "count" : 1371,
            "type" : "SCALAR"
        },
        {
            "bufferView" : 8,
            "componentType" : 5126,
            "count" : 206,
            "max" : [
                0.013585127890110016,
                0.0075545161962509155,
                0.014872955158352852
            ],
            "min" : [
                -0.13160686194896698,
                -0.20116877555847168,
                -0.01616862416267395
            ],
            "type" : "VEC3"
        },
        {
            "bufferView" : 9,
            "componentType" : 5126,
            "count" : 206,
            "type" : "VEC3"
        },
        {
            "bufferView" : 10,
            "componentType" : 5126,
            "count" : 206,
            "type" : "VEC2"
        },
        {
            "bufferView" : 11,
            "componentType" : 5123,
            "count" : 456,
            "type" : "SCALAR"
        },
        {
            "bufferView" : 12,
            "componentType" : 5126,
            "count" : 909,
            "max" : [
                0.8747486472129822,
                0.5667501091957092,
                0.12390203028917313
            ],
            "min" : [
                -0.9806819558143616,
                -0.5238857865333557,
                -0.12754587829113007
            ],
            "type" : "VEC3"
        },
        {
            "bufferView" : 13,
            "componentType" : 5126,
            "count" : 909,
            "type" : "VEC3"
        },
        {
            "bufferView" : 14,
            "componentType" : 5126,
            "count" : 909,
            "type" : "VEC2"
        },
        {
            "bufferView" : 15,
            "componentType" : 5123,
            "count" : 3663,
            "type" : "SCALAR"
        },
        {
            "bufferView" : 16,
            "componentType" : 5126,
            "count" : 6,
            "max" : [
                0.20833333333333334
            ],
            "min" : [
                0
            ],
            "type" : "SCALAR"
        },
        {
            "bufferView" : 17,
            "componentType" : 5126,
            "count" : 6,
            "type" : "VEC3"
        },
        {
            "bufferView" : 18,
            "componentType" : 5126,
            "count" : 6,
            "type" : "VEC4"
        }
    ],
    "bufferViews" : [
        {
            "buffer" : 0,
            "byteLength" : 888,
            "byteOffset" : 0
        },
        {
            "buffer" : 0,
            "byteLength" : 888,
            "byteOffset" : 888
        },
        {
            "buffer" : 0,
            "byteLength" : 592,
            "byteOffset" : 1776
        },
        {
            "buffer" : 0,
            "byteLength" : 336,
            "byteOffset" : 2368
        },
        {
            "buffer" : 0,
            "byteLength" : 7680,
            "byteOffset" : 2704
        },
        {
            "buffer" : 0,
            "byteLength" : 7680,
            "byteOffset" : 10384
        },
        {
            "buffer" : 0,
            "byteLength" : 5120,
            "byteOffset" : 18064
        },
        {
            "buffer" : 0,
            "byteLength" : 2742,
            "byteOffset" : 23184
        },
        {
            "buffer" : 0,
            "byteLength" : 2472,
            "byteOffset" : 25928
        },
        {
            "buffer" : 0,
            "byteLength" : 2472,
            "byteOffset" : 28400
        },
        {
            "buffer" : 0,
            "byteLength" : 1648,
            "byteOffset" : 30872
        },
        {
            "buffer" : 0,
            "byteLength" : 912,
            "byteOffset" : 32520
        },
        {
            "buffer" : 0,
            "byteLength" : 10908,
            "byteOffset" : 33432
        },
        {
            "buffer" : 0,
            "byteLength" : 10908,
            "byteOffset" : 44340
        },
        {
            "buffer" : 0,
            "byteLength" : 7272,
            "byteOffset" : 55248
        },
        {
            "buffer" : 0,
            "byteLength" : 7326,
            "byteOffset" : 62520
        },
        {
            "buffer" : 0,
            "byteLength" : 24,
            "byteOffset" : 69848
        },
        {
            "buffer" : 0,
            "byteLength" : 72,
            "byteOffset" : 69872
        },
        {
            "buffer" : 0,
            "byteLength" : 96,
            "byteOffset" : 69944
        }
    ],
    "buffers" : [
        {
            "byteLength" : 70040,
            "uri" : "Handgun_Packed.bin"
        }
    ]
}
